<?xml version="1.0" standalone="no"?><!DOCTYPE svg PUBLIC "-//W3C//DTD SVG 1.1//EN" "http://www.w3.org/Graphics/SVG/1.1/DTD/svg11.dtd"><svg t="1658459117789" class="icon" viewBox="0 0 1024 1024" version="1.1" xmlns="http://www.w3.org/2000/svg" p-id="3671" xmlns:xlink="http://www.w3.org/1999/xlink" width="200" height="200"><defs><style type="text/css"></style></defs><path d="M512 64c247.456 0 448 200.24 448 447.392 0 247.04-200.544 447.392-448 447.392S64 758.432 64 511.392C64 264.24 264.544 64 512 64z m-0.128 176c-43.392 0-45.872 40.928-46.016 45.6v159.44L260.8 578.96v46.032l205.04-66.96v125.536l-66.944 54.4V784l112.976-46.032L624.864 784v-46.032l-66.96-54.4v-125.536l205.056 66.96v-46.032l-205.056-138.096v-154.832S557.92 240 511.872 240z" fill="#1CC6A1" p-id="3672"></path></svg>